<mxfile host="65bd71144e" scale="4" border="0">
    <diagram id="SxEX5Bup9brUezzOuutx" name="Page-1">
        <mxGraphModel dx="1293" dy="764" grid="1" gridSize="10" guides="1" tooltips="1" connect="1" arrows="1" fold="1" page="1" pageScale="1" pageWidth="827" pageHeight="1169" math="0" shadow="0">
            <root>
                <mxCell id="0"/>
                <mxCell id="1" parent="0"/>
                <mxCell id="3" value="" style="shape=mxgraph.signs.people.woman_1;html=1;pointerEvents=1;fillColor=#000000;strokeColor=none;verticalLabelPosition=bottom;verticalAlign=top;align=center;flipH=0;flipV=0;" vertex="1" parent="1">
                    <mxGeometry x="171" y="210" width="48" height="100" as="geometry"/>
                </mxCell>
                <mxCell id="4" value="" style="shape=mxgraph.signs.people.woman_1;html=1;pointerEvents=1;fillColor=#000000;strokeColor=none;verticalLabelPosition=bottom;verticalAlign=top;align=center;flipH=0;flipV=0;" vertex="1" parent="1">
                    <mxGeometry x="609" y="210" width="48" height="100" as="geometry"/>
                </mxCell>
                <mxCell id="5" value="" style="shape=mxgraph.signs.people.woman_1;html=1;pointerEvents=1;fillColor=#d5e8d4;strokeColor=#82b366;verticalLabelPosition=bottom;verticalAlign=top;align=center;flipH=0;flipV=0;" vertex="1" parent="1">
                    <mxGeometry x="122" y="210" width="48" height="100" as="geometry"/>
                </mxCell>
                <mxCell id="6" value="" style="shape=mxgraph.signs.people.woman_1;html=1;pointerEvents=1;fillColor=#000000;strokeColor=none;verticalLabelPosition=bottom;verticalAlign=top;align=center;flipH=0;flipV=0;" vertex="1" parent="1">
                    <mxGeometry x="268" y="210" width="48" height="100" as="geometry"/>
                </mxCell>
                <mxCell id="7" value="" style="shape=mxgraph.signs.people.woman_1;html=1;pointerEvents=1;fillColor=#000000;strokeColor=none;verticalLabelPosition=bottom;verticalAlign=top;align=center;flipH=0;flipV=0;" vertex="1" parent="1">
                    <mxGeometry x="366" y="210" width="48" height="100" as="geometry"/>
                </mxCell>
                <mxCell id="8" value="" style="shape=mxgraph.signs.people.woman_1;html=1;pointerEvents=1;fillColor=#000000;strokeColor=none;verticalLabelPosition=bottom;verticalAlign=top;align=center;flipH=0;flipV=0;" vertex="1" parent="1">
                    <mxGeometry x="414" y="210" width="48" height="100" as="geometry"/>
                </mxCell>
                <mxCell id="9" value="" style="shape=mxgraph.signs.people.woman_1;html=1;pointerEvents=1;fillColor=#000000;strokeColor=none;verticalLabelPosition=bottom;verticalAlign=top;align=center;flipH=0;flipV=0;" vertex="1" parent="1">
                    <mxGeometry x="561" y="210" width="48" height="100" as="geometry"/>
                </mxCell>
                <mxCell id="10" value="" style="shape=mxgraph.signs.people.woman_1;html=1;pointerEvents=1;fillColor=#f8cecc;strokeColor=#b85450;verticalLabelPosition=bottom;verticalAlign=top;align=center;flipH=0;flipV=0;" vertex="1" parent="1">
                    <mxGeometry x="658" y="210" width="48" height="100" as="geometry"/>
                </mxCell>
                <mxCell id="11" value="" style="shape=mxgraph.signs.people.man_1;html=1;pointerEvents=1;fillColor=#000000;strokeColor=none;verticalLabelPosition=bottom;verticalAlign=top;align=center;" vertex="1" parent="1">
                    <mxGeometry x="322" y="210" width="37" height="98" as="geometry"/>
                </mxCell>
                <mxCell id="12" value="" style="shape=mxgraph.signs.people.man_1;html=1;pointerEvents=1;fillColor=#000000;strokeColor=none;verticalLabelPosition=bottom;verticalAlign=top;align=center;" vertex="1" parent="1">
                    <mxGeometry x="225" y="210" width="37" height="98" as="geometry"/>
                </mxCell>
                <mxCell id="13" value="" style="shape=mxgraph.signs.people.man_1;html=1;pointerEvents=1;fillColor=#000000;strokeColor=none;verticalLabelPosition=bottom;verticalAlign=top;align=center;" vertex="1" parent="1">
                    <mxGeometry x="469" y="210" width="37" height="98" as="geometry"/>
                </mxCell>
                <mxCell id="14" value="" style="shape=mxgraph.signs.people.man_1;html=1;pointerEvents=1;fillColor=#000000;strokeColor=none;verticalLabelPosition=bottom;verticalAlign=top;align=center;" vertex="1" parent="1">
                    <mxGeometry x="517" y="210" width="37" height="98" as="geometry"/>
                </mxCell>
                <mxCell id="15" style="edgeStyle=orthogonalEdgeStyle;rounded=0;orthogonalLoop=1;jettySize=auto;html=1;strokeWidth=3;curved=1;sourcePerimeterSpacing=-20;startArrow=oval;startFill=1;fillColor=#d5e8d4;strokeColor=#82b366;" edge="1" parent="1" source="5">
                    <mxGeometry relative="1" as="geometry">
                        <mxPoint x="91" y="190" as="targetPoint"/>
                    </mxGeometry>
                </mxCell>
                <mxCell id="16" style="edgeStyle=orthogonalEdgeStyle;rounded=0;orthogonalLoop=1;jettySize=auto;html=1;strokeWidth=3;curved=1;startArrow=oval;startFill=1;sourcePerimeterSpacing=0;targetPerimeterSpacing=-25;fillColor=#f8cecc;strokeColor=#b85450;" edge="1" parent="1" target="10">
                    <mxGeometry relative="1" as="geometry">
                        <mxPoint x="720" y="260" as="targetPoint"/>
                        <mxPoint x="760" y="190" as="sourcePoint"/>
                        <Array as="points">
                            <mxPoint x="760" y="260"/>
                        </Array>
                    </mxGeometry>
                </mxCell>
            </root>
        </mxGraphModel>
    </diagram>
</mxfile>